<svg xmlns="http://www.w3.org/2000/svg" width="16" height="16" viewBox="0 0 16 16"><path d="M8.963 0l.263 1.697c.026.162.166.276.333.276h1.787L9.727 3.02c-.155.102-.248.287-.225.445l.263 1.7H9.76C8.494 4.118 8.5 4.118 8.494 4.118c-.123-.1-.315-.1-.47 0-.004 0-1.626 1.053-1.626 1.053l.837-1.695c.08-.163.05-.347-.065-.447-.005 0-1.268-1.053-1.268-1.053H7.69c.172 0 .347-.114.426-.27L8.963 0zm-5.56 3.517l.262 1.697c.027.162.167.276.334.276h1.787c-1.62 1.048-1.617 1.048-1.62 1.048-.155.1-.247.29-.226.447l.266 1.7H4.2C2.935 7.64 2.94 7.64 2.935 7.64c-.123-.102-.32-.102-.47 0C2.462 7.64.84 8.69.84 8.69l.837-1.695c.08-.162.053-.347-.066-.447-.006 0-1.27-1.052-1.27-1.052h1.79c.172 0 .352-.114.426-.272.01-.01.846-1.707.846-1.707zm9.87 0l.263 1.697c.026.162.166.276.333.276h1.787c-1.623 1.048-1.618 1.048-1.623 1.048-.153.1-.245.29-.224.447l.265 1.7h-.005L12.803 7.64c-.118-.1-.316-.1-.47 0-.004 0-1.626 1.052-1.626 1.052l.837-1.696c.08-.162.05-.347-.065-.447l-1.27-1.053H12c.17 0 .347-.114.426-.272.01-.01.846-1.706.846-1.706zm-6.353 7.31l.263 1.696c.026.163.166.277.333.277h1.79c-1.623 1.048-1.62 1.048-1.623 1.048-.154.1-.246.29-.225.447l.264 1.7h-.004C6.45 14.95 6.454 14.95 6.45 14.95c-.122-.1-.32-.1-.47 0-.004 0-1.626 1.052-1.626 1.052l.837-1.696c.08-.163.055-.347-.063-.447L3.86 12.805h1.788c.17 0 .346-.113.426-.27.01-.01.846-1.707.846-1.707z"/></svg>
